<mxfile host="Electron" agent="Mozilla/5.0 (Windows NT 10.0; Win64; x64) AppleWebKit/537.36 (KHTML, like Gecko) draw.io/26.0.4 Chrome/128.0.6613.186 Electron/32.2.5 Safari/537.36" version="26.0.4" pages="2">
  <diagram name="Page-1" id="IlU57A_ReEDlIj7SCoP4">
    <mxGraphModel dx="1050" dy="621" grid="1" gridSize="10" guides="1" tooltips="1" connect="1" arrows="1" fold="1" page="1" pageScale="1" pageWidth="827" pageHeight="1169" math="0" shadow="0">
      <root>
        <mxCell id="0" />
        <mxCell id="1" parent="0" />
        <mxCell id="K1ZnhoD1f_wA88mFGqIu-14" value="" style="rounded=0;whiteSpace=wrap;html=1;" vertex="1" parent="1">
          <mxGeometry x="100" y="90" width="700" height="340" as="geometry" />
        </mxCell>
        <mxCell id="K1ZnhoD1f_wA88mFGqIu-3" value="" style="whiteSpace=wrap;html=1;aspect=fixed;" vertex="1" parent="1">
          <mxGeometry x="201" y="212.5" width="125" height="125" as="geometry" />
        </mxCell>
        <mxCell id="K1ZnhoD1f_wA88mFGqIu-1" value="" style="sketch=0;aspect=fixed;pointerEvents=1;shadow=0;dashed=0;html=1;strokeColor=none;labelPosition=center;verticalLabelPosition=bottom;verticalAlign=top;align=center;fillColor=#00188D;shape=mxgraph.azure.file" vertex="1" parent="1">
          <mxGeometry x="240" y="250" width="47" height="50" as="geometry" />
        </mxCell>
        <mxCell id="K1ZnhoD1f_wA88mFGqIu-5" value="Data source" style="text;html=1;align=center;verticalAlign=middle;whiteSpace=wrap;rounded=0;" vertex="1" parent="1">
          <mxGeometry x="213.5" y="220" width="100" height="20" as="geometry" />
        </mxCell>
        <mxCell id="K1ZnhoD1f_wA88mFGqIu-7" value="CSV" style="text;html=1;align=center;verticalAlign=middle;whiteSpace=wrap;rounded=0;" vertex="1" parent="1">
          <mxGeometry x="213.5" y="310" width="100" height="20" as="geometry" />
        </mxCell>
        <mxCell id="K1ZnhoD1f_wA88mFGqIu-8" value="" style="image;aspect=fixed;html=1;points=[];align=center;fontSize=12;image=img/lib/azure2/storage/Data_Lake_Storage_Gen1.svg;" vertex="1" parent="1">
          <mxGeometry x="630" y="227.75" width="88.92" height="72.25" as="geometry" />
        </mxCell>
        <mxCell id="K1ZnhoD1f_wA88mFGqIu-9" style="edgeStyle=orthogonalEdgeStyle;rounded=0;orthogonalLoop=1;jettySize=auto;html=1;exitX=1;exitY=0.5;exitDx=0;exitDy=0;entryX=0.056;entryY=0.646;entryDx=0;entryDy=0;entryPerimeter=0;" edge="1" parent="1" source="K1ZnhoD1f_wA88mFGqIu-3" target="K1ZnhoD1f_wA88mFGqIu-8">
          <mxGeometry relative="1" as="geometry" />
        </mxCell>
        <mxCell id="K1ZnhoD1f_wA88mFGqIu-10" value="" style="shape=image;verticalLabelPosition=bottom;labelBackgroundColor=default;verticalAlign=top;aspect=fixed;imageAspect=0;image=data:image/jpeg,/9j/4AAQSkZJRgABAQAAAQABAAD/2wCEAAkGBxANEA0NDw0QDQ8PDg0OEA0NDw8PDQ8NFxUWGBYRFRgYHyggGBolGxUVITEhJiktLjMuFx8zOzUuNygtLjcBCgoKDg0OGhAQGCslHSUtMysrKystLTAtLS4rLS0rLS0uKysxLS0rLS8rLS0rLS4rKysrLS0rLS0rMC8rLS0tK//AABEIAOsA1gMBEQACEQEDEQH/xAAcAAEAAgMBAQEAAAAAAAAAAAAAAQIEBQYHAwj/xABNEAACAQIBBQoHCwoGAwAAAAAAAQIDEQQFBhIhMRMyQVFUYXGBkbEHFCJSoaLRU2JjcnSCk5SywdIVFyQzNEKS0+HwFoOzwuPxIzVz/8QAGgEBAQADAQEAAAAAAAAAAAAAAAECBAUDBv/EADoRAQABAgIEDAQFBQADAAAAAAABAgMEERIhMVIFExQyQVFhcYGRobHB0eHwFTM0YqIiI0JTYyRy8f/aAAwDAQACEQMRAD8A9xAAAAAAAA0eWs6cNg24OTq1VtpUrNxfvnsj0beY97eHrr19DwuYiijV0uUxufuIndUqVOiuOV6k+3UvQbdODojbObUqxlc7IyabEZy42pvsXUX/AM9Gl9hI9YsW4/xeM37k/wCTAq5Qrz32IrS+NVqS72ekUUx0Qw06uufNjTm3tbfS2ypnKqm1sbXQ7AfSGPrR3terH4tWce5mOjTPRDLTq65ZdDOTG097jK3z57r9u5hNm3P+MM4vXI2VS3GT/CFi6bSrRp4mPDdblUfXHV6p5VYSidmp604uuNut3OQM5sNj1anJwqpXdCpZVEuNcElzrrsaVyzVb27G7bvU3Nm1ujyeoAAAAAAAAAAAAAAAAAcznxlyWEpRpUpaNWtpeWtsKa2yXE3dJdfEbWGtRXVnOyGrir00U5Rtl5k2dNzGbgsjYnER06OHqVI+ekoxfQ3ZPqPOq7RTqmXpTarqjOIYeLw1SjJ06tOVKa16M4uLtxq+1c5lTVFUZxLGqmaZymHwbMmKrZFVbAq2BVhVWBNOrKEozhJwnFqUZxbUoyXCnwEmM9UkTlrh67mRnL+UKTjUssRRsqltSqReyol3rgfSjl37PFzq2OpYvcZGvbDpTwe4AAAAAAAAAAAAAAAA8v8ACBW0sbOPudKlD0OX+46mEjK25eLnO412bOAjisXQoz1wbcprjjFN6PXZLrPS9XoUTMPOzRp1xEvYIRUUopJJJJJKySWxI47sNLnhkyGJwla6WnShOrTl+9GUVdroaVn/AEPbD1zTXHa8b9EV0S8fbOs5KrYFWwKsKqwKtkFWwNzmblB4bHYWaeqdRUJrjhUajr5lJxfzTyv06VuY8XrZq0bkT4eb245LrAAAAAAAAAAAAAAAADyfPh/p+K/yf9KB1sN+VH30uTifzZ++hrsiZReExFHEJaShJ6UVtlBpqSXPZvrsZ3KNOmaWFuvQqip7Bk/H0sTBVaNSNSL4YvWnxNbU+ZnIqommcph16a4qjOJc9nxnDSoUKuGhNTr1YypuMXfc4SVpSlxOzdlt1mxh7M1VRVOyGviL0U0zTG2XljZ0nNVbAq2FVYENgVbIKthX3yW/0jDfKKH24mNfNnuWjnR3v0CcZ2QAAAAAAAAAAAAAAAB5Lnx/7DFf5P8ApQOthvyo++lycT+bP30NC2e7wVvw+kiqAVbAq2FQwKtgVbIKthVWwPvkt/pGG+UUPtxMa+bPcyo50d79BnGdgAAAAAAAAAAAAAAAAchl3Mp4zEVcT42qe6aHkbhp20YRjt01fe32cJt2sVoUxTo+rUu4XTrmrS9PqwPzcPly+rf8h6ct/b6/R58ine9Pqr+bZ8vX1b/kHLf2+v0ORTven1R+bV8vX1Z/zBy39vr9DkU73p9Ufm0fL19Wf8wct/b6/Q5FO96fVH5s3y9fVX/MJy39vr9F5FO96fVwmNobjVrUr6W5ValPStbS0ZON7cGw3KZziJadUZTMMdsqKtgVbCqtgZGS3+kYb5RQ+3Exr5s9zKjnR3v0IcZ2AAAAAAAAAAArUmoJylJRjFNuUmlFJbW29hYjPYTOW1yOVs+6VNuGHpuu1q3STcKV+bhl6Ok27eDqnXVOTTuYymNVMZudxGeuOnsqQpc1OlFr17mxGFtx0NecVcnpY7zwyhyp/RYf8Blya11e7HlN3e9kPPDKHKn9Dh/wDk1rd9zlN3e9lXnjlDlb+hw/4Bya1u+5ym7veyHnllDlb+hw/wCAnJrW77nKbu97KvPPKPK39Dh/wDk1rd9zlF3e9kPPTKPK39Dh/wAA5Na3fdeUXd72VeemUeVv6HD/AIBya11e5yi7veyHnrlHlb+hw34Bya11e5yi7vezQ160qkp1JO8pylOTsleUnduy1bWe0RlGUPKZznOXybCKthVGwKtgZGS/2jDfKKH24mNfNnuZUc6O97/jKjjG6dndcR8zj7tdq1pUTlObuWqYqqylheNT870R9hxuX4jf9I+TZ4qjqPGp+d6I+wcvxG/6R8jiqOpaONmttpdKselHCd6nnZT99jGbFM7GZQxCns1PhTOxhsZRfjVqnqeFduaX2Np5gAABEmkm27JK7b1JIDy7OzOOWNm6dNuOGg/Jjs3Vr9+X3L7zq2LEW4zna5V+/Nyco2OdZsNdDYFWwKNgVbIqrYFWwKsKhgVbIKtgVbCqtgVbAq2Bk5K/aMN8oofbiY182e5lTzo73vuP3nzkfK8J/keMO9Y5zXHzzbRcCCKmM3Fpp2aLRcqoqiqmdcE0xMZS29CrpxUu1cTPq8Pfi9biuPuXPrp0ZyfQ92IAA5fwgZSdHDKjF2niG4Pj3Jb/ALbxXRJm1hKNKvOehq4u5o0ZR0vNGdNzFWwKtgVbAq2RVWwKtgVbCqsCrZBVsCrYVVsCrYFWyCAMrJX7RhvlFD7cSV82e5lTzo73vuUN585HyvCn5HjDvWOc1tz51touRUNkVFyDMyXU1yhxq66f77jr8EXsq6rc9Ov7++hr4inVEtkd9qAADzPwh4rTxap31UaUI24py8p+hxOnhKcrefW5mLqzuZdTlmzaaqrYFWwKtkVVsCrYFWwqrAhsgo2BVsKq2BVsCrYEEADbZp4N4jHYKmvd6dR/Eg9OXoi+0wu1aNEy9LVOlXEdr27KUvJiuN36l/2fJ8LV5W6aeufb/wCu7h41zLX3OA21bmKouRUXIPphZ6M4PnS6nqNjB3NC/RV2++pjcpzomG8PsHNAAHjecdfdMXi5/D1Iroi9FeiKOzZjK3EdjjXpzuVT2tY2ejzVbAq2RVWwKtgVbCqsCGwKtkFWwqrYFWwKtgVIAAD1TwY5uSw8JY6tHRqVo6NKEl5UKGpuT4nJpdSXG0aGKu6U6MN/DWpiNKXTYytpydti1L2nxePxHHXZmNkaodm1Ro0se5pPVDZM1VuYqi5MxFyZq6GnK6T40mfcW69OiKuuM3KmMpyWM0APDMTU0pzl505y7W2dyIyjJw6pzmZfJsqKtkVVsCjYFWwqGBVsDMwmSMVXSdLC1qkXrU4056D+da3pPOq5TTtlnTbqq2QyXmplDkVX1faY8fb3mXEXN1DzUyhyKr6ntHH295eIubqrzTyhyKr6ntHH2944i5uqvNLKHIavqe0cfb3jiLm6j/COUeQ1fU9pOPt7xxFzdP8ACOUOQ1fU9o4+3vHE3N198LmPlGq0vFXTXn1alOMV0pNvsRJxFuOlYw9yeh2+bPg9pYaUa2KksTVjaUaaVsPCXHZ65vndlzcJq3cVNUZU6obVrCxTOdWuXT43F3vCL6Zfcj5nH8IRMTbtT3z8I+bqWrPTUwLnEbSLkEEVFyZqgiouYje4J3p0/ipdh9lgZzw1HdHo5l6Mq5fc23mAeEVFZtcTa7DuQ4cqNgVbAq2BVsKqwMzI+Sq2OqqjRjeW2UnqhTj50nwIwuXIojOWdFua5yh6lkLM/C4FKcoqvWVm61ZK0X7yL1R7+c5l/FTMTMzlDo2sNTT0Zy3c8bFbLy6NhyK+E7NOqnOfvtbsWKp2qePrzX2o8vxajdllxE9Z4+vNfah+LUbsnET1nj6819qH4tRuycRPWePrzX2ofi1G7JxE9Z4+vNfaifi1G5JyeetH5QXmvtQ/F6NyTk89asso8UO1mFXDG7R5ysYfrljVsVKepuy4lqRzb+NvXtVU6uqNj3otU07Hwuaj0Rciq3IIMVCKrcgi5Fb3J36qHQ+9n2HBv6Wju+LmX/zJZJvPIA8RyzS3PE4qHm4iul0abt6DtW5zoiexxbkZVzHawWzJiq2BVsCrCppU5VJRhCLlOcowjFbZTbskutkmcozkiM9UPac3cjU8m4dU1ZzaUq1RbalTm5lsS/qcXFYmIiblWyHYsWdGIpjatWrObu9nAuBHymIxNd+rOrZ0R1OjRRFManzNdmAAAEXIIuRUNkVFyCrZjmqCKi5M1QQRcmaobMVQ2RVWyZjosHG1Omvex7j7bBU6OHojshyrs51z3vsbTzAPJM/cNuWOrPgqxp1V0OOi/WjI6uGqztw5WJpyuS5xs93gq2BVsKhgdT4NsCq2N3SSusPSnUXFujtGPocn1GtiqsqMuts4WnOvPqemZQnrUeLW+k+R4Vu51RbjvduxTqzYZyGwAAAEEVFyCtzFUXIqLkEEVBFQYqi5MxW5FRciouRU046TjFfvNLtMrdE3K4ojpnLzSqdGJl0yVtR97EZRlDjJKAHA+FLBasNiktjlQm+nyod0+03sHVtp8WjjKdlXg8+bN5oqthVWBVsg73wSb/HP3mG76hp4zZT4/BuYPbV4fF2uM38uruR8XwhP/kVeHtDuWuZD4Gk9ACLkEXIqLkVFyCGyZqrcxVFyZiCKgiouRUXIIbMVVbIqCKzsj0tKppcEFfrepfedbgaxp39OdlMes6o+LWxVeVGXW3h9Y5oAAwcuZNjjMPWw8tWnHyZebUWuMuppGduvQqiphco06ZpeI4qhOjOdKpFwnTk4Si+CS/vadiJiYzhyJiYnKXwZUQ2BVsg77wR7/H/EwvfVNPGbKfH4N3B7avD4u0xm/l1dyPiuEP1FXh7Q7drmQ+JpvRFyKi5BVsiobMVRcggiouTNUEVFzERciqtkVFyCLkVBFQQdDk3D7nBJ76XlS6eI+z4NwvJ7ERPOnXPy8Icq/c069WxlHQeIAAAcvnhmnHHrdqTVPExVtJ7yrFbIztsfFLv1W2LF+beqdjXv2Iua42vLcpZOrYSWhXozou9k5LyZfFktUupnRprpq10y51VFVGqqGG2ZMVWwrv8AwRb/AB/xML31TSxmynx+Dcwe2rw+Ltcbv5dXcj4vhD9RV4e0O3a5kMc0XqhsiouQRcmaouRVbkzEGOalyKrcmYi5FQ2TNUNmKouTMQRRK+pa3xLWxETM5RrknU2uTsnNNTqK1tcYcN+Nn0PBvBVUVRdvRs2R8Z+Xm0r+IiY0afNtT6JogAAAAAVnBSTUkpJ7U1dMDBlkPByd3gsM3xuhSb7jPjK96fNhxdG7Hkr+QMFyHC/V6PsHG170+ZxVG7HkycHk6hh9J0cPSouVtJ0acKela9r6K17X2kqrqq2ytNFNOyGHjf1kuruR8twj+pq8PaHQs8yGO2aL1RcgrcxzVBFQ2SZVtqTo6Mb7lfRV76F72PprU4Li6dLQzyjdaNXG5zln6rXofBeoemlgP+f8WOV7t9S9D4L1CaXB/wDz/iZXu31L0PgfUGlwf/z/AIrle7fVF8P8D6hNLg//AJ/xMr37vUTw/wAD6hYng+Zyji/4n97t9X28Wp+5w/hibPI8P/rp8oefG170+Z4rT9zh/BEnI8P/AK6fKDja96fNHitP3OH8ERyPD/66fKDja96fN9IU4x2RUehJHtRboo5tMR3QxmqZ2ysZoAAAAAAAAAAADUY79ZL5vcj5bhH9TV4e0N+zzIY9zReqLkEEVBFQYqi5MxW5FRciouRUXMRajvofGj3npZ/Np7490q5sunPvnGAAAAAAAAAAAAAAAAGnx/6yfze5HyvCX6mvw9ob9nmQxrmg9kXJmIIqCKi5FRcghsxVkYLCOs3rtFbZfcjewOBqxVU68qY2z8I+9Tyu3otx2s+WSYW1SknxuzOxVwHZmnKmqc/D5fJqxi6s9cQ1OIounJwltXY1xnzuIw9di5Nuvb79reoriunOFaO+h8aPeYWPzae+Pda+bLqD79xgAAAAAAAAAAAAAAABqMpRtUb40n933Hy/CtGjiJnriJ+Hwb+HnOhiXObm90EVFzERciqtkVFyCLkVu8jtblq26Ur9P/Vj6zgaaZw0Zbc5z++7JzsVnxjOOq1mny41pQ49F36L6vvPmeHpjjKI6cp+nxb+Dz0ZYOFjpTpr38ey+s5OFomu/RTHXHv8mzcnKiZ7HTH3jjgAAAAAAAAAAAAAAADFx+H3SN1vo7OdcRzuEcJN+3nTzo2dvY9rFzQnXsaZnyk6nRVuQRciobIqLmKouQQRX3weLlSd1rT2xex+w3MHjbmFqzp1xO2PvZLyu2ouRrZ8ssK2qm787Vjr1cPU6P8ATROfbOprRg5z1y1daq5ycpO7f92OBevV3q5rrnXLcppimMobPI+Ea/8ALJcHkrm8473A2CmP79cf+vz+TTxV3P8AojxbU+haQAAAAAAAAAAAAAAAAAYuLwUamteTLjWx9JzsZwbbxH9Uaquvr73vavzRq6Gqr4ScNsbrzo60fO4jA37POp1dca4+njk3aLtFWyWNc0s3qi5FQRUEAAB9aOHnU3sW+fg7T3sYa7fn+3TM9vR57GFdymjnS2mEyWo2lUak/NW9XTxn0GD4GpomK705z1dH19mldxUzqp1NkdxqAAAAAAAAAAAAAAAAAAAAAPjVwtOe+gnz7H2o1buCsXefRHfsnzjW9KbtdOyWLPJNN7HKPWmvSaNfAmHq5szHj84+L2jF1xtyfJ5G4qnbG/3mtVwDHRc9PrDOMZ+31Fkb4X1P6kjgHrufx+q8s/b6vpDJEFtlJ9iR70cB2I51VU+XyYTi6+iIZNPA0o7IJ88vK7zetcHYa3sojx1+7xqv3Ktssg3XkAAAAAAAAAAAAAAAAAAAAAAAAAAAAAAAAAAAAAAAAAAAAAAAAAAAAC4EaQEaYEaYDdAG6AN0AnTAnSAXAkAAAAAAAAAAAAAAAAAAUbAq2BRsCrYEaQEaQDSAaQFlICUwLpgWTAumBIAAAAAAAAAAAAAAACriBVwAq4AVcAI0AI0AGgA0AJUALKAFlAC6iBYAAAAAAAAAAAAAAAAAAAACwEWAiwCwEpALASAAAAAAAAAAAAAD/9k=;" vertex="1" parent="1">
          <mxGeometry x="450.94" y="290.35" width="36.11" height="39.65" as="geometry" />
        </mxCell>
        <mxCell id="K1ZnhoD1f_wA88mFGqIu-11" value="" style="strokeColor=#dddddd;shadow=1;strokeWidth=1;rounded=1;absoluteArcSize=1;arcSize=2;" vertex="1" parent="1">
          <mxGeometry x="414" y="227.75" width="110" height="44" as="geometry" />
        </mxCell>
        <mxCell id="K1ZnhoD1f_wA88mFGqIu-12" value="Scheduled&#xa;Tasks" style="sketch=0;dashed=0;connectable=0;html=1;fillColor=#757575;strokeColor=none;shape=mxgraph.gcp2.scheduled_tasks;part=1;labelPosition=right;verticalLabelPosition=middle;align=left;verticalAlign=middle;spacingLeft=5;fontSize=12;" vertex="1" parent="K1ZnhoD1f_wA88mFGqIu-11">
          <mxGeometry y="0.5" width="32" height="32" relative="1" as="geometry">
            <mxPoint x="5" y="-16" as="offset" />
          </mxGeometry>
        </mxCell>
        <mxCell id="K1ZnhoD1f_wA88mFGqIu-13" value="ADLG2" style="text;html=1;align=center;verticalAlign=middle;whiteSpace=wrap;rounded=0;" vertex="1" parent="1">
          <mxGeometry x="630" y="310" width="100" height="20" as="geometry" />
        </mxCell>
        <mxCell id="K1ZnhoD1f_wA88mFGqIu-15" value="&lt;h1 style=&quot;margin-top: 0px;&quot;&gt;Data Architecture&lt;/h1&gt;" style="text;html=1;whiteSpace=wrap;overflow=hidden;rounded=0;" vertex="1" parent="1">
          <mxGeometry x="362" y="130" width="214" height="40" as="geometry" />
        </mxCell>
      </root>
    </mxGraphModel>
  </diagram>
  <diagram id="hHP0iQ43B1oEoRG4XjRP" name="Page-2">
    <mxGraphModel dx="1050" dy="621" grid="1" gridSize="10" guides="1" tooltips="1" connect="1" arrows="1" fold="1" page="1" pageScale="1" pageWidth="827" pageHeight="1169" math="0" shadow="0">
      <root>
        <mxCell id="0" />
        <mxCell id="1" parent="0" />
        <mxCell id="hwLNJA8JAbrTUMM72dQ--1" value="" style="rounded=0;whiteSpace=wrap;html=1;" vertex="1" parent="1">
          <mxGeometry x="100" y="90" width="700" height="340" as="geometry" />
        </mxCell>
        <mxCell id="hwLNJA8JAbrTUMM72dQ--2" value="" style="whiteSpace=wrap;html=1;aspect=fixed;" vertex="1" parent="1">
          <mxGeometry x="201" y="212.5" width="125" height="125" as="geometry" />
        </mxCell>
        <mxCell id="hwLNJA8JAbrTUMM72dQ--3" value="" style="sketch=0;aspect=fixed;pointerEvents=1;shadow=0;dashed=0;html=1;strokeColor=none;labelPosition=center;verticalLabelPosition=bottom;verticalAlign=top;align=center;fillColor=#00188D;shape=mxgraph.azure.file" vertex="1" parent="1">
          <mxGeometry x="240" y="250" width="47" height="50" as="geometry" />
        </mxCell>
        <mxCell id="hwLNJA8JAbrTUMM72dQ--4" value="Data source" style="text;html=1;align=center;verticalAlign=middle;whiteSpace=wrap;rounded=0;" vertex="1" parent="1">
          <mxGeometry x="213.5" y="220" width="100" height="20" as="geometry" />
        </mxCell>
        <mxCell id="hwLNJA8JAbrTUMM72dQ--5" value="CSV" style="text;html=1;align=center;verticalAlign=middle;whiteSpace=wrap;rounded=0;" vertex="1" parent="1">
          <mxGeometry x="213.5" y="310" width="100" height="20" as="geometry" />
        </mxCell>
        <mxCell id="hwLNJA8JAbrTUMM72dQ--6" value="" style="image;aspect=fixed;html=1;points=[];align=center;fontSize=12;image=img/lib/azure2/storage/Data_Lake_Storage_Gen1.svg;" vertex="1" parent="1">
          <mxGeometry x="630" y="227.75" width="88.92" height="72.25" as="geometry" />
        </mxCell>
        <mxCell id="hwLNJA8JAbrTUMM72dQ--7" style="edgeStyle=orthogonalEdgeStyle;rounded=0;orthogonalLoop=1;jettySize=auto;html=1;exitX=1;exitY=0.5;exitDx=0;exitDy=0;entryX=0.056;entryY=0.646;entryDx=0;entryDy=0;entryPerimeter=0;" edge="1" parent="1" source="hwLNJA8JAbrTUMM72dQ--2" target="hwLNJA8JAbrTUMM72dQ--6">
          <mxGeometry relative="1" as="geometry" />
        </mxCell>
        <mxCell id="hwLNJA8JAbrTUMM72dQ--8" value="" style="shape=image;verticalLabelPosition=bottom;labelBackgroundColor=default;verticalAlign=top;aspect=fixed;imageAspect=0;image=data:image/jpeg,/9j/4AAQSkZJRgABAQAAAQABAAD/2wCEAAkGBxANEA0NDw0QDQ8PDg0OEA0NDw8PDQ8NFxUWGBYRFRgYHyggGBolGxUVITEhJiktLjMuFx8zOzUuNygtLjcBCgoKDg0OGhAQGCslHSUtMysrKystLTAtLS4rLS0rLS0uKysxLS0rLS8rLS0rLS4rKysrLS0rLS0rMC8rLS0tK//AABEIAOsA1gMBEQACEQEDEQH/xAAcAAEAAgMBAQEAAAAAAAAAAAAAAQIEBQYHAwj/xABNEAACAQIBBQoHCwoGAwAAAAAAAQIDEQQFBhIhMRMyQVFUYXGBkbEHFCJSoaLRU2JjcnSCk5SywdIVFyQzNEKS0+HwFoOzwuPxIzVz/8QAGgEBAQADAQEAAAAAAAAAAAAAAAECBAUDBv/EADoRAQABAgIEDAQFBQADAAAAAAABAgMEERIhMVIFExQyQVFhcYGRobHB0eHwFTM0YqIiI0JTYyRy8f/aAAwDAQACEQMRAD8A9xAAAAAAAA0eWs6cNg24OTq1VtpUrNxfvnsj0beY97eHrr19DwuYiijV0uUxufuIndUqVOiuOV6k+3UvQbdODojbObUqxlc7IyabEZy42pvsXUX/AM9Gl9hI9YsW4/xeM37k/wCTAq5Qrz32IrS+NVqS72ekUUx0Qw06uufNjTm3tbfS2ypnKqm1sbXQ7AfSGPrR3terH4tWce5mOjTPRDLTq65ZdDOTG097jK3z57r9u5hNm3P+MM4vXI2VS3GT/CFi6bSrRp4mPDdblUfXHV6p5VYSidmp604uuNut3OQM5sNj1anJwqpXdCpZVEuNcElzrrsaVyzVb27G7bvU3Nm1ujyeoAAAAAAAAAAAAAAAAAcznxlyWEpRpUpaNWtpeWtsKa2yXE3dJdfEbWGtRXVnOyGrir00U5Rtl5k2dNzGbgsjYnER06OHqVI+ekoxfQ3ZPqPOq7RTqmXpTarqjOIYeLw1SjJ06tOVKa16M4uLtxq+1c5lTVFUZxLGqmaZymHwbMmKrZFVbAq2BVhVWBNOrKEozhJwnFqUZxbUoyXCnwEmM9UkTlrh67mRnL+UKTjUssRRsqltSqReyol3rgfSjl37PFzq2OpYvcZGvbDpTwe4AAAAAAAAAAAAAAAA8v8ACBW0sbOPudKlD0OX+46mEjK25eLnO412bOAjisXQoz1wbcprjjFN6PXZLrPS9XoUTMPOzRp1xEvYIRUUopJJJJJKySWxI47sNLnhkyGJwla6WnShOrTl+9GUVdroaVn/AEPbD1zTXHa8b9EV0S8fbOs5KrYFWwKsKqwKtkFWwNzmblB4bHYWaeqdRUJrjhUajr5lJxfzTyv06VuY8XrZq0bkT4eb245LrAAAAAAAAAAAAAAAADyfPh/p+K/yf9KB1sN+VH30uTifzZ++hrsiZReExFHEJaShJ6UVtlBpqSXPZvrsZ3KNOmaWFuvQqip7Bk/H0sTBVaNSNSL4YvWnxNbU+ZnIqommcph16a4qjOJc9nxnDSoUKuGhNTr1YypuMXfc4SVpSlxOzdlt1mxh7M1VRVOyGviL0U0zTG2XljZ0nNVbAq2FVYENgVbIKthX3yW/0jDfKKH24mNfNnuWjnR3v0CcZ2QAAAAAAAAAAAAAAAB5Lnx/7DFf5P8ApQOthvyo++lycT+bP30NC2e7wVvw+kiqAVbAq2FQwKtgVbIKthVWwPvkt/pGG+UUPtxMa+bPcyo50d79BnGdgAAAAAAAAAAAAAAAAchl3Mp4zEVcT42qe6aHkbhp20YRjt01fe32cJt2sVoUxTo+rUu4XTrmrS9PqwPzcPly+rf8h6ct/b6/R58ine9Pqr+bZ8vX1b/kHLf2+v0ORTven1R+bV8vX1Z/zBy39vr9DkU73p9Ufm0fL19Wf8wct/b6/Q5FO96fVH5s3y9fVX/MJy39vr9F5FO96fVwmNobjVrUr6W5ValPStbS0ZON7cGw3KZziJadUZTMMdsqKtgVbCqtgZGS3+kYb5RQ+3Exr5s9zKjnR3v0IcZ2AAAAAAAAAAArUmoJylJRjFNuUmlFJbW29hYjPYTOW1yOVs+6VNuGHpuu1q3STcKV+bhl6Ok27eDqnXVOTTuYymNVMZudxGeuOnsqQpc1OlFr17mxGFtx0NecVcnpY7zwyhyp/RYf8Blya11e7HlN3e9kPPDKHKn9Dh/wDk1rd9zlN3e9lXnjlDlb+hw/4Bya1u+5ym7veyHnllDlb+hw/wCAnJrW77nKbu97KvPPKPK39Dh/wDk1rd9zlF3e9kPPTKPK39Dh/wAA5Na3fdeUXd72VeemUeVv6HD/AIBya11e5yi7veyHnrlHlb+hw34Bya11e5yi7vezQ160qkp1JO8pylOTsleUnduy1bWe0RlGUPKZznOXybCKthVGwKtgZGS/2jDfKKH24mNfNnuZUc6O97/jKjjG6dndcR8zj7tdq1pUTlObuWqYqqylheNT870R9hxuX4jf9I+TZ4qjqPGp+d6I+wcvxG/6R8jiqOpaONmttpdKselHCd6nnZT99jGbFM7GZQxCns1PhTOxhsZRfjVqnqeFduaX2Np5gAABEmkm27JK7b1JIDy7OzOOWNm6dNuOGg/Jjs3Vr9+X3L7zq2LEW4zna5V+/Nyco2OdZsNdDYFWwKNgVbIqrYFWwKsKhgVbIKtgVbCqtgVbAq2Bk5K/aMN8oofbiY182e5lTzo73vuP3nzkfK8J/keMO9Y5zXHzzbRcCCKmM3Fpp2aLRcqoqiqmdcE0xMZS29CrpxUu1cTPq8Pfi9biuPuXPrp0ZyfQ92IAA5fwgZSdHDKjF2niG4Pj3Jb/ALbxXRJm1hKNKvOehq4u5o0ZR0vNGdNzFWwKtgVbAq2RVWwKtgVbCqsCrZBVsCrYVVsCrYFWyCAMrJX7RhvlFD7cSV82e5lTzo73vuUN585HyvCn5HjDvWOc1tz51touRUNkVFyDMyXU1yhxq66f77jr8EXsq6rc9Ov7++hr4inVEtkd9qAADzPwh4rTxap31UaUI24py8p+hxOnhKcrefW5mLqzuZdTlmzaaqrYFWwKtkVVsCrYFWwqrAhsgo2BVsKq2BVsCrYEEADbZp4N4jHYKmvd6dR/Eg9OXoi+0wu1aNEy9LVOlXEdr27KUvJiuN36l/2fJ8LV5W6aeufb/wCu7h41zLX3OA21bmKouRUXIPphZ6M4PnS6nqNjB3NC/RV2++pjcpzomG8PsHNAAHjecdfdMXi5/D1Iroi9FeiKOzZjK3EdjjXpzuVT2tY2ejzVbAq2RVWwKtgVbCqsCGwKtkFWwqrYFWwKtgVIAAD1TwY5uSw8JY6tHRqVo6NKEl5UKGpuT4nJpdSXG0aGKu6U6MN/DWpiNKXTYytpydti1L2nxePxHHXZmNkaodm1Ro0se5pPVDZM1VuYqi5MxFyZq6GnK6T40mfcW69OiKuuM3KmMpyWM0APDMTU0pzl505y7W2dyIyjJw6pzmZfJsqKtkVVsCjYFWwqGBVsDMwmSMVXSdLC1qkXrU4056D+da3pPOq5TTtlnTbqq2QyXmplDkVX1faY8fb3mXEXN1DzUyhyKr6ntHH295eIubqrzTyhyKr6ntHH2944i5uqvNLKHIavqe0cfb3jiLm6j/COUeQ1fU9pOPt7xxFzdP8ACOUOQ1fU9o4+3vHE3N198LmPlGq0vFXTXn1alOMV0pNvsRJxFuOlYw9yeh2+bPg9pYaUa2KksTVjaUaaVsPCXHZ65vndlzcJq3cVNUZU6obVrCxTOdWuXT43F3vCL6Zfcj5nH8IRMTbtT3z8I+bqWrPTUwLnEbSLkEEVFyZqgiouYje4J3p0/ipdh9lgZzw1HdHo5l6Mq5fc23mAeEVFZtcTa7DuQ4cqNgVbAq2BVsKqwMzI+Sq2OqqjRjeW2UnqhTj50nwIwuXIojOWdFua5yh6lkLM/C4FKcoqvWVm61ZK0X7yL1R7+c5l/FTMTMzlDo2sNTT0Zy3c8bFbLy6NhyK+E7NOqnOfvtbsWKp2qePrzX2o8vxajdllxE9Z4+vNfah+LUbsnET1nj6819qH4tRuycRPWePrzX2ofi1G7JxE9Z4+vNfaifi1G5JyeetH5QXmvtQ/F6NyTk89asso8UO1mFXDG7R5ysYfrljVsVKepuy4lqRzb+NvXtVU6uqNj3otU07Hwuaj0Rciq3IIMVCKrcgi5Fb3J36qHQ+9n2HBv6Wju+LmX/zJZJvPIA8RyzS3PE4qHm4iul0abt6DtW5zoiexxbkZVzHawWzJiq2BVsCrCppU5VJRhCLlOcowjFbZTbskutkmcozkiM9UPac3cjU8m4dU1ZzaUq1RbalTm5lsS/qcXFYmIiblWyHYsWdGIpjatWrObu9nAuBHymIxNd+rOrZ0R1OjRRFManzNdmAAAEXIIuRUNkVFyCrZjmqCKi5M1QQRcmaobMVQ2RVWyZjosHG1Omvex7j7bBU6OHojshyrs51z3vsbTzAPJM/cNuWOrPgqxp1V0OOi/WjI6uGqztw5WJpyuS5xs93gq2BVsKhgdT4NsCq2N3SSusPSnUXFujtGPocn1GtiqsqMuts4WnOvPqemZQnrUeLW+k+R4Vu51RbjvduxTqzYZyGwAAAEEVFyCtzFUXIqLkEEVBFQYqi5MxW5FRciouRU046TjFfvNLtMrdE3K4ojpnLzSqdGJl0yVtR97EZRlDjJKAHA+FLBasNiktjlQm+nyod0+03sHVtp8WjjKdlXg8+bN5oqthVWBVsg73wSb/HP3mG76hp4zZT4/BuYPbV4fF2uM38uruR8XwhP/kVeHtDuWuZD4Gk9ACLkEXIqLkVFyCGyZqrcxVFyZiCKgiouRUXIIbMVVbIqCKzsj0tKppcEFfrepfedbgaxp39OdlMes6o+LWxVeVGXW3h9Y5oAAwcuZNjjMPWw8tWnHyZebUWuMuppGduvQqiphco06ZpeI4qhOjOdKpFwnTk4Si+CS/vadiJiYzhyJiYnKXwZUQ2BVsg77wR7/H/EwvfVNPGbKfH4N3B7avD4u0xm/l1dyPiuEP1FXh7Q7drmQ+JpvRFyKi5BVsiobMVRcggiouTNUEVFzERciqtkVFyCLkVBFQQdDk3D7nBJ76XlS6eI+z4NwvJ7ERPOnXPy8Icq/c069WxlHQeIAAAcvnhmnHHrdqTVPExVtJ7yrFbIztsfFLv1W2LF+beqdjXv2Iua42vLcpZOrYSWhXozou9k5LyZfFktUupnRprpq10y51VFVGqqGG2ZMVWwrv8AwRb/AB/xML31TSxmynx+Dcwe2rw+Ltcbv5dXcj4vhD9RV4e0O3a5kMc0XqhsiouQRcmaouRVbkzEGOalyKrcmYi5FQ2TNUNmKouTMQRRK+pa3xLWxETM5RrknU2uTsnNNTqK1tcYcN+Nn0PBvBVUVRdvRs2R8Z+Xm0r+IiY0afNtT6JogAAAAAVnBSTUkpJ7U1dMDBlkPByd3gsM3xuhSb7jPjK96fNhxdG7Hkr+QMFyHC/V6PsHG170+ZxVG7HkycHk6hh9J0cPSouVtJ0acKela9r6K17X2kqrqq2ytNFNOyGHjf1kuruR8twj+pq8PaHQs8yGO2aL1RcgrcxzVBFQ2SZVtqTo6Mb7lfRV76F72PprU4Li6dLQzyjdaNXG5zln6rXofBeoemlgP+f8WOV7t9S9D4L1CaXB/wDz/iZXu31L0PgfUGlwf/z/AIrle7fVF8P8D6hNLg//AJ/xMr37vUTw/wAD6hYng+Zyji/4n97t9X28Wp+5w/hibPI8P/rp8oefG170+Z4rT9zh/BEnI8P/AK6fKDja96fNHitP3OH8ERyPD/66fKDja96fN9IU4x2RUehJHtRboo5tMR3QxmqZ2ysZoAAAAAAAAAAADUY79ZL5vcj5bhH9TV4e0N+zzIY9zReqLkEEVBFQYqi5MxW5FRciouRUXMRajvofGj3npZ/Np7490q5sunPvnGAAAAAAAAAAAAAAAAGnx/6yfze5HyvCX6mvw9ob9nmQxrmg9kXJmIIqCKi5FRcghsxVkYLCOs3rtFbZfcjewOBqxVU68qY2z8I+9Tyu3otx2s+WSYW1SknxuzOxVwHZmnKmqc/D5fJqxi6s9cQ1OIounJwltXY1xnzuIw9di5Nuvb79reoriunOFaO+h8aPeYWPzae+Pda+bLqD79xgAAAAAAAAAAAAAAABqMpRtUb40n933Hy/CtGjiJnriJ+Hwb+HnOhiXObm90EVFzERciqtkVFyCLkVu8jtblq26Ur9P/Vj6zgaaZw0Zbc5z++7JzsVnxjOOq1mny41pQ49F36L6vvPmeHpjjKI6cp+nxb+Dz0ZYOFjpTpr38ey+s5OFomu/RTHXHv8mzcnKiZ7HTH3jjgAAAAAAAAAAAAAAADFx+H3SN1vo7OdcRzuEcJN+3nTzo2dvY9rFzQnXsaZnyk6nRVuQRciobIqLmKouQQRX3weLlSd1rT2xex+w3MHjbmFqzp1xO2PvZLyu2ouRrZ8ssK2qm787Vjr1cPU6P8ATROfbOprRg5z1y1daq5ycpO7f92OBevV3q5rrnXLcppimMobPI+Ea/8ALJcHkrm8473A2CmP79cf+vz+TTxV3P8AojxbU+haQAAAAAAAAAAAAAAAAAYuLwUamteTLjWx9JzsZwbbxH9Uaquvr73vavzRq6Gqr4ScNsbrzo60fO4jA37POp1dca4+njk3aLtFWyWNc0s3qi5FQRUEAAB9aOHnU3sW+fg7T3sYa7fn+3TM9vR57GFdymjnS2mEyWo2lUak/NW9XTxn0GD4GpomK705z1dH19mldxUzqp1NkdxqAAAAAAAAAAAAAAAAAAAAAPjVwtOe+gnz7H2o1buCsXefRHfsnzjW9KbtdOyWLPJNN7HKPWmvSaNfAmHq5szHj84+L2jF1xtyfJ5G4qnbG/3mtVwDHRc9PrDOMZ+31Fkb4X1P6kjgHrufx+q8s/b6vpDJEFtlJ9iR70cB2I51VU+XyYTi6+iIZNPA0o7IJ88vK7zetcHYa3sojx1+7xqv3Ktssg3XkAAAAAAAAAAAAAAAAAAAAAAAAAAAAAAAAAAAAAAAAAAAAAAAAAAAAC4EaQEaYEaYDdAG6AN0AnTAnSAXAkAAAAAAAAAAAAAAAAAAUbAq2BRsCrYEaQEaQDSAaQFlICUwLpgWTAumBIAAAAAAAAAAAAAAACriBVwAq4AVcAI0AI0AGgA0AJUALKAFlAC6iBYAAAAAAAAAAAAAAAAAAAACwEWAiwCwEpALASAAAAAAAAAAAAAD/9k=;" vertex="1" parent="1">
          <mxGeometry x="450.94" y="290.35" width="36.11" height="39.65" as="geometry" />
        </mxCell>
        <mxCell id="hwLNJA8JAbrTUMM72dQ--9" value="" style="strokeColor=#dddddd;shadow=1;strokeWidth=1;rounded=1;absoluteArcSize=1;arcSize=2;" vertex="1" parent="1">
          <mxGeometry x="414" y="227.75" width="110" height="44" as="geometry" />
        </mxCell>
        <mxCell id="hwLNJA8JAbrTUMM72dQ--10" value="Scheduled&#xa;Tasks" style="sketch=0;dashed=0;connectable=0;html=1;fillColor=#757575;strokeColor=none;shape=mxgraph.gcp2.scheduled_tasks;part=1;labelPosition=right;verticalLabelPosition=middle;align=left;verticalAlign=middle;spacingLeft=5;fontSize=12;" vertex="1" parent="hwLNJA8JAbrTUMM72dQ--9">
          <mxGeometry y="0.5" width="32" height="32" relative="1" as="geometry">
            <mxPoint x="5" y="-16" as="offset" />
          </mxGeometry>
        </mxCell>
        <mxCell id="hwLNJA8JAbrTUMM72dQ--11" value="ADLG2" style="text;html=1;align=center;verticalAlign=middle;whiteSpace=wrap;rounded=0;" vertex="1" parent="1">
          <mxGeometry x="630" y="310" width="100" height="20" as="geometry" />
        </mxCell>
        <mxCell id="hwLNJA8JAbrTUMM72dQ--12" value="&lt;h1 style=&quot;margin-top: 0px;&quot;&gt;Data Architecture&lt;/h1&gt;" style="text;html=1;whiteSpace=wrap;overflow=hidden;rounded=0;" vertex="1" parent="1">
          <mxGeometry x="362" y="130" width="214" height="40" as="geometry" />
        </mxCell>
      </root>
    </mxGraphModel>
  </diagram>
</mxfile>
